<?xml version="1.0" standalone="no"?>
<!DOCTYPE svg PUBLIC "-//W3C//DTD SVG 20010904//EN"
 "http://www.w3.org/TR/2001/REC-SVG-20010904/DTD/svg10.dtd">
<svg version="1.0" xmlns="http://www.w3.org/2000/svg"
 width="177.000000pt" height="257.000000pt" viewBox="0 0 177.000000 257.000000"
 preserveAspectRatio="xMidYMid meet">

<g transform="translate(0.000000,257.000000) scale(0.100000,-0.100000)"
fill="#000000" stroke="none">
<path d="M0 2485 l0 -85 885 0 885 0 0 85 0 85 -885 0 -885 0 0 -85z"/>
<path d="M0 1730 l0 -610 203 2 202 3 3 608 2 607 -205 0 -205 0 0 -610z"/>
<path d="M550 1730 l0 -610 200 0 200 0 2 282 3 281 217 -270 c120 -149 224
-275 232 -282 9 -8 66 -11 187 -9 l174 3 3 608 2 607 -205 0 -205 0 0 -266 0
-266 -212 266 -213 265 -192 1 -193 0 0 -610z"/>
<path d="M130 1080 c-72 -13 -110 -51 -110 -108 0 -63 36 -94 135 -117 31 -7
50 -17 50 -26 0 -19 -79 -14 -115 8 -27 16 -28 15 -59 -18 -17 -19 -31 -37
-31 -41 0 -15 95 -50 150 -55 69 -7 141 15 165 50 8 12 15 41 15 65 0 53 -29
85 -91 102 -24 7 -55 15 -68 19 -14 4 -27 13 -29 19 -5 17 51 15 93 -2 34 -15
35 -14 60 18 14 18 25 38 25 44 0 25 -128 54 -190 42z"/>
<path d="M360 958 c0 -179 31 -227 150 -236 82 -6 141 17 172 66 20 32 23 53
27 165 l3 127 -61 0 -61 0 0 -110 c0 -97 -2 -112 -20 -130 -24 -24 -38 -25
-68 -4 -21 14 -22 23 -22 130 l0 114 -60 0 -60 0 0 -122z"/>
<path d="M747 1073 c-4 -3 -7 -82 -7 -175 l0 -168 60 0 60 0 0 44 0 43 54 6
c104 11 153 59 143 144 -6 53 -36 89 -86 103 -40 11 -214 14 -224 3z m190
-110 c20 -26 -2 -53 -42 -53 -33 0 -35 2 -35 33 0 19 3 36 6 40 10 10 59 -3
71 -20z"/>
<path d="M1090 905 l0 -175 150 0 150 0 0 45 0 44 -92 3 c-79 3 -93 6 -96 21
-3 15 6 17 82 17 l86 0 0 45 0 45 -85 0 c-68 0 -85 3 -85 15 0 11 19 15 93 17
l92 3 3 48 3 47 -150 0 -151 0 0 -175z"/>
<path d="M1420 905 l0 -175 60 0 60 0 0 50 c0 28 4 50 10 50 5 0 25 -22 42
-49 l33 -50 68 -3 c37 -2 67 -1 67 2 0 3 -16 28 -36 57 l-36 53 31 35 c57 65
35 158 -45 191 -22 9 -73 14 -144 14 l-110 0 0 -175z m210 56 c14 -27 -12 -51
-56 -51 -32 0 -34 2 -34 35 0 34 1 35 40 35 29 0 42 -5 50 -19z"/>
<path d="M181 668 c-5 -13 -46 -111 -91 -218 -45 -107 -84 -201 -87 -207 -4
-10 15 -13 76 -13 l82 0 10 30 c11 30 11 30 91 30 79 0 80 0 91 -30 l11 -30
83 0 c46 0 83 1 83 3 0 1 -43 103 -95 227 l-94 225 -76 3 c-70 3 -76 1 -84
-20z m118 -255 c1 -9 -13 -13 -38 -13 l-40 0 13 33 c7 17 16 41 21 52 6 18 9
15 25 -20 10 -22 19 -46 19 -52z"/>
<path d="M550 455 l0 -225 153 0 c127 0 159 3 194 19 51 24 76 60 76 112 0 42
-28 83 -65 95 -22 7 -24 24 -3 24 21 0 55 59 55 95 0 17 -7 41 -16 53 -31 45
-62 52 -234 52 l-160 0 0 -225z m248 106 c8 -5 12 -17 10 -27 -2 -15 -14 -20
-56 -22 l-52 -3 0 30 c0 30 2 31 43 31 23 0 48 -4 55 -9z m20 -178 c4 -27 -28
-43 -84 -43 -32 0 -34 2 -34 35 l0 36 58 -3 c50 -3 57 -6 60 -25z"/>
<path d="M1010 455 l0 -225 75 0 75 0 0 225 0 225 -75 0 -75 0 0 -225z"/>
<path d="M1212 458 l3 -223 183 -3 182 -2 0 65 0 65 -105 0 -105 0 0 160 0
160 -80 0 -80 0 2 -222z"/>
<path d="M1610 455 l0 -225 80 0 80 0 0 225 0 225 -80 0 -80 0 0 -225z"/>
<path d="M0 85 l0 -85 883 2 882 3 3 83 3 82 -886 0 -885 0 0 -85z"/>
</g>
</svg>
